<svg xmlns="http://www.w3.org/2000/svg" viewBox="0 0 512 512">
  <rect width="512" height="512" fill="#0f172a"/>
  <circle cx="256" cy="256" r="120" fill="#06b6d4" opacity="0.8"/>
  <circle cx="256" cy="256" r="60" fill="#ecfeff"/>
  <g stroke="#22d3ee" stroke-width="12" stroke-linecap="round">
    <line x1="256" y1="136" x2="256" y2="60"/>
    <line x1="256" y1="376" x2="256" y2="452"/>
    <line x1="136" y1="256" x2="60" y2="256"/>
    <line x1="376" y1="256" x2="452" y2="256"/>
    <line x1="171" y1="171" x2="110" y2="110"/>
    <line x1="341" y1="171" x2="402" y2="110"/>
    <line x1="171" y1="341" x2="110" y2="402"/>
    <line x1="341" y1="341" x2="402" y2="402"/>
  </g>
  <circle cx="256" cy="60" r="20" fill="#22d3ee"/>
  <circle cx="256" cy="452" r="20" fill="#22d3ee"/>
  <circle cx="60" cy="256" r="20" fill="#22d3ee"/>
  <circle cx="452" cy="256" r="20" fill="#22d3ee"/>
  <circle cx="110" cy="110" r="15" fill="#22d3ee"/>
  <circle cx="402" cy="110" r="15" fill="#22d3ee"/>
  <circle cx="110" cy="402" r="15" fill="#22d3ee"/>
  <circle cx="402" cy="402" r="15" fill="#22d3ee"/>
</svg>